<?xml version="1.0" encoding="UTF-8"?>
<!DOCTYPE svg PUBLIC "-//W3C//DTD SVG 1.1//EN" "http://www.w3.org/Graphics/SVG/1.1/DTD/svg11.dtd">
<svg version="1.2" width="240mm" height="280mm" viewBox="0 0 24000 28000" preserveAspectRatio="xMidYMid" fill-rule="evenodd" stroke-width="28.222" stroke-linejoin="round" xmlns="http://www.w3.org/2000/svg" xmlns:ooo="http://xml.openoffice.org/svg/export" xmlns:xlink="http://www.w3.org/1999/xlink" xmlns:presentation="http://sun.com/xmlns/staroffice/presentation" xmlns:smil="http://www.w3.org/2001/SMIL20/" xmlns:anim="urn:oasis:names:tc:opendocument:xmlns:animation:1.0" xml:space="preserve">
 <defs class="ClipPathGroup">
  <clipPath id="presentation_clip_path" clipPathUnits="userSpaceOnUse">
   <rect x="0" y="0" width="24000" height="28000"/>
  </clipPath>
  <clipPath id="presentation_clip_path_shrink" clipPathUnits="userSpaceOnUse">
   <rect x="24" y="28" width="23952" height="27944"/>
  </clipPath>
 </defs>
 <defs class="TextShapeIndex">
  <g ooo:slide="id1" ooo:id-list="id3 id4 id5 id6 id7 id8 id9 id10 id11 id12 id13 id14 id15"/>
 </defs>
 <defs class="EmbeddedBulletChars">
  <g id="bullet-char-template-57356" transform="scale(0.00048828125,-0.00048828125)">
   <path d="M 580,1141 L 1163,571 580,0 -4,571 580,1141 Z"/>
  </g>
  <g id="bullet-char-template-57354" transform="scale(0.00048828125,-0.00048828125)">
   <path d="M 8,1128 L 1137,1128 1137,0 8,0 8,1128 Z"/>
  </g>
  <g id="bullet-char-template-10146" transform="scale(0.00048828125,-0.00048828125)">
   <path d="M 174,0 L 602,739 174,1481 1456,739 174,0 Z M 1358,739 L 309,1346 659,739 1358,739 Z"/>
  </g>
  <g id="bullet-char-template-10132" transform="scale(0.00048828125,-0.00048828125)">
   <path d="M 2015,739 L 1276,0 717,0 1260,543 174,543 174,936 1260,936 717,1481 1274,1481 2015,739 Z"/>
  </g>
  <g id="bullet-char-template-10007" transform="scale(0.00048828125,-0.00048828125)">
   <path d="M 0,-2 C -7,14 -16,27 -25,37 L 356,567 C 262,823 215,952 215,954 215,979 228,992 255,992 264,992 276,990 289,987 310,991 331,999 354,1012 L 381,999 492,748 772,1049 836,1024 860,1049 C 881,1039 901,1025 922,1006 886,937 835,863 770,784 769,783 710,716 594,584 L 774,223 C 774,196 753,168 711,139 L 727,119 C 717,90 699,76 672,76 641,76 570,178 457,381 L 164,-76 C 142,-110 111,-127 72,-127 30,-127 9,-110 8,-76 1,-67 -2,-52 -2,-32 -2,-23 -1,-13 0,-2 Z"/>
  </g>
  <g id="bullet-char-template-10004" transform="scale(0.00048828125,-0.00048828125)">
   <path d="M 285,-33 C 182,-33 111,30 74,156 52,228 41,333 41,471 41,549 55,616 82,672 116,743 169,778 240,778 293,778 328,747 346,684 L 369,508 C 377,444 397,411 428,410 L 1163,1116 C 1174,1127 1196,1133 1229,1133 1271,1133 1292,1118 1292,1087 L 1292,965 C 1292,929 1282,901 1262,881 L 442,47 C 390,-6 338,-33 285,-33 Z"/>
  </g>
  <g id="bullet-char-template-9679" transform="scale(0.00048828125,-0.00048828125)">
   <path d="M 813,0 C 632,0 489,54 383,161 276,268 223,411 223,592 223,773 276,916 383,1023 489,1130 632,1184 813,1184 992,1184 1136,1130 1245,1023 1353,916 1407,772 1407,592 1407,412 1353,268 1245,161 1136,54 992,0 813,0 Z"/>
  </g>
  <g id="bullet-char-template-8226" transform="scale(0.00048828125,-0.00048828125)">
   <path d="M 346,457 C 273,457 209,483 155,535 101,586 74,649 74,723 74,796 101,859 155,911 209,963 273,989 346,989 419,989 480,963 531,910 582,859 608,796 608,723 608,648 583,586 532,535 482,483 420,457 346,457 Z"/>
  </g>
  <g id="bullet-char-template-8211" transform="scale(0.00048828125,-0.00048828125)">
   <path d="M -4,459 L 1135,459 1135,606 -4,606 -4,459 Z"/>
  </g>
  <g id="bullet-char-template-61548" transform="scale(0.00048828125,-0.00048828125)">
   <path d="M 173,740 C 173,903 231,1043 346,1159 462,1274 601,1332 765,1332 928,1332 1067,1274 1183,1159 1299,1043 1357,903 1357,740 1357,577 1299,437 1183,322 1067,206 928,148 765,148 601,148 462,206 346,322 231,437 173,577 173,740 Z"/>
  </g>
 </defs>
 <g>
  <g id="id2" class="Master_Slide">
   <g id="bg-id2" class="Background"/>
   <g id="bo-id2" class="BackgroundObjects"/>
  </g>
 </g>
 <g class="SlideGroup">
  <g>
   <g id="container-id1">
    <g id="id1" class="Slide" clip-path="url(#presentation_clip_path)">
     <g class="Page">
      <g class="com.sun.star.drawing.ClosedBezierShape">
       <g id="id3">
        <rect class="BoundingBox" stroke="none" fill="none" x="1464" y="1438" width="20993" height="25384"/>
        <path fill="rgb(0,0,0)" stroke="none" d="M 1464,1438 L 1464,17300 1477,17300 C 1477,22554 6172,26821 11966,26821 17755,26821 22456,22554 22456,17300 L 22437,17300 22437,1438 1464,1438 Z"/>
       </g>
      </g>
      <g class="com.sun.star.drawing.ClosedBezierShape">
       <g id="id4">
        <rect class="BoundingBox" stroke="none" fill="none" x="1714" y="1689" width="20492" height="24882"/>
        <path fill="rgb(0,119,51)" stroke="none" d="M 1715,1689 L 1715,17236 1727,17236 C 1727,22387 6310,26569 11966,26569 17616,26569 22205,22387 22205,17236 L 22186,17236 22186,1689 1715,1689 Z"/>
       </g>
      </g>
      <g class="com.sun.star.drawing.ClosedBezierShape">
       <g id="id5">
        <rect class="BoundingBox" stroke="none" fill="none" x="2265" y="4088" width="18197" height="17463"/>
        <path fill="rgb(1,1,1)" stroke="none" d="M 13795,5900 C 12781,6743 11762,7657 10673,8401 10688,7678 10798,7013 10441,6338 10311,6093 10099,5816 9826,5729 9977,6540 9679,7475 9429,8243 L 9403,8243 C 9403,7036 9603,5136 8054,4777 8094,5003 8221,5204 8258,5438 8355,6068 8262,6665 8212,7290 L 8186,7290 C 8186,6292 7865,4513 6572,4512 L 6885,5888 6863,7079 C 6532,6696 6212,6365 5673,6364 5790,6629 5926,6837 5978,7131 6247,8651 5535,10224 6264,11682 6529,12211 6962,12598 7498,12838 7734,12944 7998,12967 8239,13060 8588,13193 8904,13428 9164,13693 9899,14440 10255,15454 10393,16471 10450,16888 10394,17551 9985,17784 9757,17914 9393,17847 9138,17847 8383,17847 7640,17721 6890,17661 6864,17062 6919,16480 6784,15889 7084,15848 7824,15706 7736,15280 6982,15571 6213,14707 5567,14415 5373,14328 5145,14258 4932,14249 4809,14245 4681,14296 4561,14273 4271,14217 3987,14036 3715,13926 3374,13788 3036,13644 2683,13540 2603,13516 2375,13434 2303,13484 2173,13574 2412,13865 2474,13930 2790,14262 3241,14481 3635,14706 4215,15035 4818,15403 5127,16021 5500,16766 5317,17680 5416,18482 5508,19234 5790,19994 6296,20566 6479,20772 6709,20923 6916,21100 6464,21100 5759,21066 5514,21550 5718,21481 5906,21378 6122,21346 6544,21284 6972,21358 7392,21304 7738,21259 8049,21044 8402,21072 8813,21105 9136,21404 9562,21399 10066,21392 10455,20971 10937,20977 11359,20982 11714,21337 12154,21337 12682,21337 13094,20924 13610,20887 14160,20847 14537,21331 15065,21338 15539,21344 15880,21074 16334,21025 16745,20981 17077,21160 17471,21178 17668,21187 17885,21213 18079,21165 18320,21106 18444,20978 18715,20996 19149,21026 19431,21301 19826,21417 19645,21029 19129,20845 18741,20756 19401,20038 19829,18935 20168,18032 20258,17793 20537,17311 20441,17054 20302,16682 19647,16630 19323,16630 19288,16817 19274,17114 19131,17254 18937,17443 18544,17489 18291,17546 17513,17723 16680,17793 15884,17794 15603,17794 15322,17820 15038,17820 14946,17820 14783,17850 14710,17778 14593,17660 14725,17359 14782,17238 14937,16908 15173,16976 15404,16777 15677,16542 15569,16190 15303,16021 15656,15881 15812,15374 15435,15148 L 15435,15122 C 15799,14981 15899,14388 15514,14196 L 15514,14143 C 15851,13994 15889,13631 15752,13322 16640,13322 18288,13246 18344,12026 17938,12163 17477,12264 17048,12185 L 17048,12158 C 17899,12141 18570,11554 18741,10730 18216,10893 17770,11020 17207,11021 L 17207,10994 C 18335,10676 19614,10389 19799,9010 L 17842,9592 17842,9618 17683,9645 17842,9592 17842,9566 C 18653,9289 19841,8654 19977,7714 20007,7502 19952,7308 19905,7105 19690,7201 19500,7375 19297,7497 18795,7796 18237,8107 17683,8296 L 17683,8269 C 18763,7817 20088,6823 19667,5491 L 19614,5491 C 19126,6184 18102,6691 17365,7079 18112,6429 19345,5505 18635,4380 18352,4527 18105,4784 17842,4969 16948,5598 16072,6308 15118,6840 15623,6295 16148,5625 16035,4830 15996,4556 15878,4330 15752,4089 L 15673,4089 C 15204,4798 14442,5361 13795,5900 Z"/>
       </g>
      </g>
      <g class="com.sun.star.drawing.ClosedBezierShape">
       <g id="id6">
        <rect class="BoundingBox" stroke="none" fill="none" x="6837" y="4406" width="12991" height="14952"/>
        <path fill="rgb(217,179,105)" stroke="none" d="M 14377,7294 C 14209,7442 14043,7593 13874,7740 14284,7679 14721,7318 15065,7097 15872,6578 16667,6042 17445,5480 17704,5293 17961,5102 18212,4904 18296,4837 18417,4683 18527,4669 18659,4652 18682,4929 18685,5015 18701,5365 18481,5706 18274,5967 17764,6610 17049,7110 16361,7546 16085,7721 15796,7945 15488,8057 L 15488,8084 C 15954,8074 16463,7754 16864,7538 17437,7228 18009,6910 18556,6553 18893,6333 19213,6062 19561,5862 19690,6402 19316,6909 18953,7263 18335,7867 17510,8270 16731,8621 16379,8780 16019,8983 15647,9089 L 15647,9116 C 16030,9099 16427,8918 16784,8790 17543,8519 18284,8200 19006,7839 19284,7700 19543,7489 19826,7370 19826,8738 17994,9375 16917,9751 16601,9860 16073,9941 15832,10174 L 17340,9896 19614,9222 C 19247,10347 18082,10646 17049,10873 16697,10950 16323,11044 15964,11074 L 15964,11100 C 16813,11100 17603,11172 18450,11047 18040,12032 16776,12105 15858,12105 L 15858,12132 C 16569,12406 17364,12306 18106,12291 17680,13277 16120,13137 15250,13137 15369,13253 15531,13297 15617,13455 15801,13795 15417,14063 15118,14090 L 15118,14116 C 15702,14176 15676,15021 15091,15069 L 15091,15095 C 15373,15150 15602,15490 15416,15755 15301,15919 15093,15967 14906,15968 L 14906,15995 C 15104,16059 15461,16192 15355,16471 15259,16724 14972,16682 14803,16845 14474,17162 14336,18001 14559,18402 14774,18786 15466,18627 15832,18592 16681,18511 17578,18492 18371,18129 18623,18014 18809,17845 19032,17688 19031,18084 18847,18672 18503,18898 18046,19199 17262,19218 16731,19248 14288,19383 11853,19354 9403,19354 8860,19354 8301,19320 7763,19245 7543,19214 7250,19185 7080,19028 6849,18815 6837,18480 6837,18191 7156,18247 7465,18408 7789,18476 8441,18614 9110,18640 9773,18640 10180,18640 10625,18669 10990,18458 11422,18209 11657,17733 11774,17265 12002,16352 11901,15336 11574,14460 11419,14047 11172,13603 10779,13375 L 10779,13349 11176,13375 11176,13322 C 9963,13270 8904,12263 9037,11021 9076,10659 9297,10293 9482,9989 10099,8976 11183,8233 12102,7511 13355,6524 14546,5502 15700,4406 16405,5487 15110,6649 14377,7294 Z"/>
       </g>
      </g>
      <g class="com.sun.star.drawing.ClosedBezierShape">
       <g id="id7">
        <rect class="BoundingBox" stroke="none" fill="none" x="5990" y="4592" width="5799" height="13974"/>
        <path fill="rgb(217,179,105)" stroke="none" d="M 8051,7528 C 8009,8147 7820,8680 7948,9301 8073,9228 8016,9108 8016,8983 8016,8792 8024,8560 8074,8375 8251,7725 8420,7095 8449,6417 8470,5954 8365,5522 8345,5068 8794,5117 9041,5745 9127,6126 9375,7225 9218,8345 9218,9460 9406,9303 9399,8895 9474,8666 9626,8196 9795,7726 9877,7237 9943,6848 9921,6427 10011,6047 10615,6481 10642,7370 10548,8031 10522,8209 10514,8420 10443,8587 10327,8859 9984,9100 9793,9327 9181,10058 8673,10882 8946,11867 9095,12402 9446,12813 9932,13076 10220,13232 10559,13313 10805,13536 11807,14448 12042,16425 11512,17635 10941,18937 9293,18531 8160,18404 7811,18364 6877,18280 6810,17847 7630,17882 8448,18004 9271,18005 9615,18006 9963,18105 10242,17838 10672,17425 10619,16689 10544,16153 10344,14715 9357,12978 7789,12767 L 7789,12740 8160,12555 8160,12529 C 7254,12783 6536,12061 6278,11232 5807,9717 6565,8093 5990,6602 6857,6757 6886,7805 6803,8481 6765,8787 6659,9113 6863,9380 L 7074,6073 6942,5068 6837,4592 C 7811,5168 8125,6456 8051,7528 Z"/>
       </g>
      </g>
      <g class="com.sun.star.drawing.ClosedBezierShape">
       <g id="id8">
        <rect class="BoundingBox" stroke="none" fill="none" x="17647" y="8303" width="20" height="13"/>
        <path fill="rgb(1,1,1)" stroke="none" d="M 17665,8313 C 17652,8318 17636,8304 17656,8304 L 17665,8313 Z"/>
       </g>
      </g>
      <g class="com.sun.star.drawing.ClosedBezierShape">
       <g id="id9">
        <rect class="BoundingBox" stroke="none" fill="none" x="12698" y="8965" width="2370" height="5682"/>
        <path fill="rgb(1,1,1)" stroke="none" d="M 12763,9566 L 12842,9010 12816,9010 C 12672,9436 12680,9736 12736,10174 L 12763,10174 C 12766,9761 12942,9301 13318,9088 13637,8909 14134,9090 14162,9486 14196,9978 13711,10257 13529,10650 13858,10498 14085,10172 14482,10150 14824,10132 15129,10571 14894,10861 14665,11144 14223,11213 13900,11338 L 13900,11365 C 14177,11313 14480,11333 14719,11500 14964,11671 15008,12045 14794,12259 14544,12509 13911,12323 13847,12740 14487,12622 14893,13387 14244,13719 L 14244,13772 C 14622,13961 14690,14353 14349,14619 L 14349,14645 C 14792,14530 14731,13932 14376,13746 14942,13335 14587,12661 13952,12661 14153,12444 14553,12574 14799,12402 15306,12046 14936,11332 14402,11285 L 14402,11259 C 14595,11179 14839,11086 14967,10914 15217,10580 14963,10146 14587,10081 14373,10043 14171,10147 13979,10227 14084,10101 14168,9961 14216,9804 14530,8777 13046,8689 12789,9566 L 12763,9566 Z"/>
       </g>
      </g>
      <g class="com.sun.star.drawing.ClosedBezierShape">
       <g id="id10">
        <rect class="BoundingBox" stroke="none" fill="none" x="2445" y="13640" width="2620" height="1263"/>
        <path fill="rgb(204,204,204)" stroke="none" d="M 4270,14870 C 3885,14759 3496,14410 3159,14197 2930,14052 2576,13885 2445,13640 2772,13688 3095,13873 3397,14003 3947,14240 4686,14390 5064,14883 4834,14882 4486,14932 4270,14870 Z"/>
       </g>
      </g>
      <g class="com.sun.star.drawing.ClosedBezierShape">
       <g id="id11">
        <rect class="BoundingBox" stroke="none" fill="none" x="4428" y="14466" width="4024" height="6637"/>
        <path fill="rgb(217,179,105)" stroke="none" d="M 7525,15491 C 7200,15676 6863,15755 6493,15755 6696,16053 6704,16440 6704,16787 6704,17272 6699,17758 6705,18242 6716,19243 7536,20479 8451,20862 L 8451,20888 C 8080,20904 7740,21179 7366,21080 7099,21009 6830,20821 6625,20642 5915,20025 5632,19048 5569,18137 5530,17561 5605,16954 5457,16390 5353,15995 5163,15627 4878,15332 4739,15188 4555,15090 4429,14935 L 5091,14949 5593,15121 C 5435,14713 4945,14877 4747,14486 5801,14290 6481,15596 7525,15464 L 7525,15491 Z"/>
       </g>
      </g>
      <g class="com.sun.star.drawing.ClosedBezierShape">
       <g id="id12">
        <rect class="BoundingBox" stroke="none" fill="none" x="17365" y="16761" width="2922" height="4247"/>
        <path fill="rgb(217,179,105)" stroke="none" d="M 17365,20888 C 17724,20615 17963,20234 18197,19856 18799,18883 19093,17829 19455,16761 19691,16822 20160,16876 20272,17132 20317,17234 20237,17379 20205,17475 20106,17772 19986,18061 19863,18348 19784,18535 19695,18718 19614,18904 19224,19806 18594,21341 17365,20941 L 17365,20888 Z"/>
       </g>
      </g>
      <g class="com.sun.star.drawing.ClosedBezierShape">
       <g id="id13">
        <rect class="BoundingBox" stroke="none" fill="none" x="14601" y="17607" width="4274" height="907"/>
        <path fill="rgb(217,179,105)" stroke="none" d="M 18081,18119 C 17319,18375 16475,18481 15673,18481 15380,18481 14677,18646 14605,18216 14550,17892 15327,17978 15541,17978 16665,17977 17765,17751 18874,17607 18744,17881 18352,18028 18081,18119 Z"/>
       </g>
      </g>
      <g class="com.sun.star.drawing.ClosedBezierShape">
       <g id="id14">
        <rect class="BoundingBox" stroke="none" fill="none" x="7181" y="19089" width="11270" height="1148"/>
        <path fill="rgb(217,179,105)" stroke="none" d="M 18450,19089 C 18294,20149 17159,20050 16335,20159 15469,20272 14562,20227 13689,20227 L 9535,20227 C 8753,20227 7205,20385 7181,19248 8096,19425 9006,19420 9932,19461 11099,19512 12284,19512 13451,19461 15143,19386 16780,19434 18450,19089 Z"/>
       </g>
      </g>
      <g class="com.sun.star.drawing.ClosedBezierShape">
       <g id="id15">
        <rect class="BoundingBox" stroke="none" fill="none" x="7816" y="20068" width="10028" height="1189"/>
        <path fill="rgb(217,179,105)" stroke="none" d="M 17742,20359 C 17403,21007 16857,20761 16282,20879 15986,20940 15737,21128 15435,21171 14773,21266 14339,20695 13715,20719 13207,20738 12814,21130 12313,21152 11786,21175 11351,20775 10832,20843 10417,20897 10084,21187 9668,21247 9046,21336 8155,20709 7816,20227 8575,20259 9330,20340 10091,20359 11181,20385 12279,20333 13371,20333 14868,20333 16367,20346 17843,20068 17827,20173 17792,20265 17742,20359 Z"/>
       </g>
      </g>
     </g>
    </g>
   </g>
  </g>
 </g>
</svg>